<?xml version="1.0" encoding="UTF-8" standalone="no"?>
<svg
   xmlns:dc="http://purl.org/dc/elements/1.1/"
   xmlns:cc="http://creativecommons.org/ns#"
   xmlns:rdf="http://www.w3.org/1999/02/22-rdf-syntax-ns#"
   xmlns:svg="http://www.w3.org/2000/svg"
   xmlns="http://www.w3.org/2000/svg"
   xmlns:sodipodi="http://sodipodi.sourceforge.net/DTD/sodipodi-0.dtd"
   xmlns:inkscape="http://www.inkscape.org/namespaces/inkscape"
   inkscape:export-ydpi="96"
   inkscape:export-xdpi="96"
   inkscape:export-filename="C:\Users\Darek\Desktop\www\inkscape\logo.png"
   inkscape:version="1.0 (4035a4fb49, 2020-05-01)"
   sodipodi:docname="logo.svg"
   id="svg8"
   version="1.1"
   viewBox="0 0 210 297"
   height="297mm"
   width="210mm">
  <defs
     id="defs2" />
  <sodipodi:namedview
     inkscape:window-maximized="0"
     inkscape:window-y="0"
     inkscape:window-x="0"
     inkscape:window-height="860"
     inkscape:window-width="1424"
     showgrid="false"
     inkscape:document-rotation="0"
     inkscape:current-layer="layer1"
     inkscape:document-units="mm"
     inkscape:cy="519.25887"
     inkscape:cx="294.65108"
     inkscape:zoom="0.7"
     inkscape:pageshadow="2"
     inkscape:pageopacity="0.0"
     borderopacity="1.0"
     bordercolor="#666666"
     pagecolor="#ffffff"
     id="base" />
  <metadata
     id="metadata5">
    <rdf:RDF>
      <cc:Work
         rdf:about="">
        <dc:format>image/svg+xml</dc:format>
        <dc:type
           rdf:resource="http://purl.org/dc/dcmitype/StillImage" />
      </cc:Work>
    </rdf:RDF>
  </metadata>
  <g
     id="layer1"
     inkscape:groupmode="layer"
     inkscape:label="Warstwa 1">
    <path
       d="m 96.216278,58.993848 -5.774837,20.103169 a 70.826423,70.826423 0 0 0 -24.23676,10.02471 l -18.28416,-10.1229 -12.42198,12.42198 10.12289,18.284153 a 70.826423,70.826423 0 0 0 -5.99601,11.29647 70.826423,70.826423 0 0 0 -0.12712,0.30386 70.826423,70.826423 0 0 0 -0.0134,0.0315 70.826423,70.826423 0 0 0 -0.11317,0.27544 70.826423,70.826423 0 0 0 -3.79098,12.33309 l -20.08715,5.77071 v 17.5674 l 20.08715,5.77072 a 70.826423,70.826423 0 0 0 3.72276,12.16618 70.826423,70.826423 0 0 0 0,5.1e-4 70.826423,70.826423 0 0 0 0.13798,0.33642 70.826423,70.826423 0 0 0 0.0408,0.0992 70.826423,70.826423 0 0 0 6.13916,11.63856 l -10.12289,18.28416 12.42198,12.42198 18.28416,-10.1229 a 70.826423,70.826423 0 0 0 11.57086,6.11074 70.826423,70.826423 0 0 0 0.19792,0.0816 70.826423,70.826423 0 0 0 0.1385,0.0574 70.826423,70.826423 0 0 0 5.2e-4,0 70.826423,70.826423 0 0 0 12.33309,3.79098 l 5.770707,20.08715 H 113.7837 l 5.77071,-20.08715 a 70.826423,70.826423 0 0 0 24.22589,-10.04951 l 18.29914,10.13168 12.42198,-12.42198 -10.14821,-18.32911 a 70.826423,70.826423 0 0 0 9.97768,-24.17062 l 20.17551,-5.79603 v -17.56738 l -20.22202,-5.80946 a 70.826423,70.826423 0 0 0 -3.8101,-12.31036 70.826423,70.826423 0 0 0 -6.16397,-11.76983 l 10.19111,-18.405593 -12.42198,-12.42198 -18.36374,10.16786 a 70.826423,70.826423 0 0 0 -24.14736,-10.03608 l -5.78466,-20.136759 z m 8.774662,34.219099 a 55.287155,55.287155 0 0 1 0.009,0 55.287155,55.287155 0 0 1 55.28759,55.287063 55.287155,55.287155 0 0 1 -55.28759,55.28707 55.287155,55.287155 0 0 1 -55.287059,-55.28707 55.287155,55.287155 0 0 1 55.278279,-55.287063 z"
       style="fill:#146b11;fill-opacity:1;stroke:#199415;stroke-width:2;stroke-miterlimit:4;stroke-dasharray:none;stroke-opacity:1"
       id="path916" />
    <path
       d="m 135.59375,64.234046 -80.568418,91.292824 47.263458,-0.0453 -27.882218,77.28438 80.568098,-91.29283 -47.26312,0.0453 z"
       inkscape:transform-center-y="-9.996357"
       inkscape:transform-center-x="-0.01311707"
       style="opacity:1;fill:#2ff92b;fill-opacity:1;stroke:#199415;stroke-width:1.28073;stroke-miterlimit:4;stroke-dasharray:none;stroke-opacity:1"
       id="path992" />
  </g>
</svg>
